<svg width="55" height="74" viewBox="0 0 55 74" fill="none" xmlns="http://www.w3.org/2000/svg">
<path d="M1.60952 19.9786H17.5834C18.2081 18.6802 19.2869 17.6014 20.7904 16.7495C22.4982 15.7812 24.5529 15.3031 26.9401 15.3031C29.6094 15.3031 31.8126 15.8365 33.5343 16.9253C35.379 18.0916 36.3126 19.9444 36.3126 22.3624C36.3126 24.5502 35.4222 26.3964 33.6827 27.8307C31.9783 29.2367 29.7521 29.9306 27.0415 29.9306H19.6919V43.561H27.7503C30.4277 43.561 32.6876 44.1506 34.5102 45.3442C36.4419 46.6094 37.4274 48.5065 37.4274 50.9259C37.4274 53.6673 36.4938 55.7191 34.615 56.9622C32.8572 58.1251 30.6305 58.6969 27.9535 58.6969C25.4524 58.6969 23.2348 58.2452 21.3094 57.3341C19.5324 56.4932 18.2725 55.2814 17.5685 53.7163H0.89883C1.906 59.5253 4.62814 64.1196 9.08112 67.5457C13.8306 71.201 20.2465 73.039 28.3586 73.039C33.503 73.039 38.0531 72.1822 42.015 70.4744C45.948 68.7792 49.0185 66.3967 51.2448 63.3224C53.4528 60.273 54.5584 56.6249 54.5584 52.3488C54.5584 49.0082 53.631 45.8646 51.7666 42.8989C49.9334 39.9821 47.1152 37.9173 43.2696 36.6963L40.646 35.8626L43.2182 34.8824C46.418 33.6628 48.8244 31.8368 50.4659 29.3987C52.1145 26.9499 52.9367 24.2062 52.9367 21.1429C52.9367 17.0724 51.8497 13.5612 49.6754 10.5786C47.4775 7.56338 44.5338 5.21124 40.83 3.51693C37.1074 1.81397 32.9874 0.961044 28.46 0.961044C20.9624 0.961044 14.9228 2.79471 10.3074 6.44617C5.98273 9.86699 3.0876 14.368 1.60952 19.9786V19.9786Z" fill="black" stroke="#595959" stroke-width="0.025974"/>
</svg>
