<svg width="56" height="74" viewBox="0 0 56 74" fill="none" xmlns="http://www.w3.org/2000/svg">
<path d="M28.0909 73.039C33.5376 73.039 38.3538 72.2125 42.5435 70.5643C46.6937 68.932 49.9247 66.5962 52.2562 63.5554C54.5651 60.544 55.7208 56.8877 55.7208 52.552C55.7208 49.0317 54.6343 45.7911 52.447 42.8023C50.2616 39.8163 47.2396 37.6809 43.3546 36.3873L40.7598 35.5229L43.3248 34.5739C46.8028 33.287 49.3659 31.3625 51.0448 28.799C52.7411 26.2099 53.5839 23.4277 53.5839 20.4312C53.5839 16.6293 52.559 13.3008 50.5062 10.4172C48.4399 7.51389 45.5073 5.21556 41.691 3.52125C37.8531 1.81637 33.3218 0.961044 28.0909 0.961044C22.86 0.961044 18.3287 1.81685 14.4908 3.52125C10.6745 5.21556 7.74234 7.51389 5.67563 10.4172C3.62285 13.3008 2.5979 16.6293 2.5979 20.4312C2.5979 23.4277 3.44121 26.2099 5.13696 28.799C6.8159 31.3625 9.37899 33.287 12.857 34.5739L15.422 35.5229L12.8272 36.3869C8.9422 37.6809 5.92021 39.8163 3.73481 42.8023C1.54748 45.7911 0.461029 49.0322 0.461029 52.552C0.461029 56.8877 1.61668 60.544 3.92557 63.5554C6.25706 66.5962 9.48807 68.9324 13.6383 70.5643C17.8284 72.2125 22.6442 73.039 28.0909 73.039V73.039ZM28.3312 30.2727C25.6403 30.2727 23.3655 29.5447 21.5438 28.0816C19.6746 26.579 18.7208 24.5944 18.7208 22.2048C18.7208 19.685 19.6703 17.6312 21.5438 16.1262C23.3655 14.6631 25.6403 13.9351 28.3312 13.9351C31.0221 13.9351 33.2968 14.6631 35.1185 16.1262C36.9925 17.6322 37.9416 19.6859 37.9416 22.2058C37.9416 24.5954 36.9877 26.5799 35.1185 28.0816C33.2968 29.5447 31.0221 30.2727 28.3312 30.2727ZM28.0909 60.0649C25.0853 60.0649 22.538 59.2899 20.4814 57.7315C18.3623 56.1252 17.2792 53.9758 17.2792 51.3647C17.2792 48.8189 18.3642 46.7046 20.4814 45.0996C22.538 43.5413 25.0853 42.7662 28.0909 42.7662C31.0966 42.7662 33.6438 43.5413 35.7004 45.0996C37.8176 46.7046 38.9026 48.8189 38.9026 51.3647C38.9026 53.9758 37.8195 56.1252 35.7004 57.7315C33.6438 59.2899 31.0966 60.0649 28.0909 60.0649Z" fill="black" stroke="#595959" stroke-width="0.025974"/>
</svg>
