<svg width="55" height="74" viewBox="0 0 55 74" fill="none" xmlns="http://www.w3.org/2000/svg">
<path d="M1.56675 73.039H54.0779V58.5398H24.0378L26.1304 56.8339L40.2832 45.2957C42.7281 43.314 44.9673 41.231 47.0023 39.047C49.0012 36.902 50.597 34.5594 51.794 32.0175C52.9708 29.5174 53.5614 26.6775 53.5614 23.4888C53.5614 18.9584 52.4591 15.0186 50.2578 11.6464C48.0488 8.26254 45.0004 5.64275 41.0943 3.77737C37.1651 1.90142 32.6929 0.961044 27.6667 0.961044C22.6476 0.961044 18.2168 1.93314 14.3615 3.87299C10.5102 5.81045 7.41467 8.47541 5.06253 11.8756C2.90404 14.9956 1.51197 18.5082 0.885376 22.4239H17.2495C17.8434 20.7325 18.8823 19.2909 20.3531 18.1137C22.0542 16.7519 24.3304 16.084 27.1511 16.084C30.0005 16.084 32.2215 16.8225 33.763 18.3333C35.2915 19.8325 36.0652 21.7084 36.0652 23.9044C36.0652 25.899 35.5078 27.7168 34.3987 29.3333C33.3454 30.8681 31.5219 32.7565 28.9184 35.0227L1.56675 58.8468V73.039Z" fill="black" stroke="#595959" stroke-width="0.025974"/>
</svg>
