<svg width="97" height="75" viewBox="0 0 97 75" fill="none" xmlns="http://www.w3.org/2000/svg">
<path d="M16.7404 72.8617H33.9761V1.46899L1 9.49895V23.9818L16.7404 19.9406V72.8612V72.8617ZM67.4496 74.5195C73.4052 74.5195 78.5482 73.0203 82.9045 70.0252C87.2739 67.0219 90.6457 62.7948 93.0272 57.3251C95.4221 51.8226 96.6234 45.302 96.6234 37.7597C96.6234 30.2165 95.4221 23.6969 93.0272 18.1949C90.6462 12.7247 87.2739 8.49803 82.9045 5.4943C78.5482 2.49874 73.4052 1 67.4496 1C61.4945 1 56.3515 2.49922 51.9951 5.4943C47.6258 8.49755 44.254 12.7247 41.8725 18.1944C39.4776 23.6964 38.2763 30.217 38.2763 37.7597C38.2763 45.3029 39.4776 51.8226 41.8725 57.3246C44.2535 62.7948 47.6258 67.0215 51.9951 70.0252C56.3515 73.0207 61.4945 74.5195 67.4496 74.5195V74.5195ZM67.4496 59.4465C63.6886 59.4465 60.7502 57.4538 58.7282 53.5948C56.7806 49.8775 55.8225 44.6028 55.8225 37.7597C55.8225 30.9167 56.7806 25.642 58.7282 21.9247C60.7502 18.0661 63.6886 16.0729 67.4496 16.0729C71.2106 16.0729 74.1495 18.0656 76.171 21.9247C78.1186 25.642 79.0772 30.9167 79.0772 37.7597C79.0772 44.6028 78.1186 49.8775 76.1715 53.5948C74.1495 57.4534 71.2106 59.4465 67.4501 59.4465H67.4496Z" fill="black" stroke="#595959" stroke-width="0.025974"/>
</svg>
