<svg width="57" height="74" viewBox="0 0 57 74" fill="none" xmlns="http://www.w3.org/2000/svg">
<path d="M19.191 55.6479H2.09105C3.52194 60.8272 6.39795 64.9446 10.7374 68.033C15.4205 71.3658 21.3554 73.039 28.569 73.039C37.525 73.039 44.3947 70.0107 49.2647 63.945C54.1699 57.8355 56.6428 48.7938 56.6428 36.7967C56.6428 29.8693 55.5275 23.6904 53.3016 18.2543C51.0943 12.8634 47.8129 8.63989 43.4495 5.56288C39.1047 2.49906 33.644 0.961044 27.0408 0.961044C23.6868 0.961044 20.4512 1.51822 17.3291 2.63309C14.2152 3.74506 11.4155 5.3786 8.92479 7.53676C6.44378 9.68649 4.4869 12.2573 3.04946 15.2561C1.61991 18.2384 0.902588 21.6543 0.902588 25.5137C0.902588 29.7498 1.87707 33.4931 3.82361 36.7625C5.77671 40.0428 8.39064 42.6185 11.6767 44.5013C14.9587 46.3818 18.6141 47.3219 22.6601 47.3219C26.4111 47.3219 29.5462 46.7843 32.0665 45.7204C34.5663 44.6652 36.6779 43.0531 38.4122 40.8741L40.3333 38.4604L40.123 41.5381C39.7033 47.6791 38.4304 52.1067 36.2464 54.8306C34.0253 57.6007 31.0661 59.0023 27.4483 59.0023C25.3462 59.0023 23.5785 58.6716 22.1476 57.9953C20.8889 57.4004 19.8979 56.6177 19.191 55.6479ZM27.5714 14.8961C30.39 14.8961 32.8293 15.8266 34.8417 17.6748C36.8747 19.5419 37.9026 21.9206 37.9026 24.7468C37.9026 27.5729 36.8747 29.9516 34.8417 31.8187C32.8293 33.6669 30.39 34.5974 27.5714 34.5974C24.7528 34.5974 22.3136 33.6669 20.3012 31.8187C18.2681 29.9516 17.2402 27.5729 17.2402 24.7468C17.2402 21.9206 18.2681 19.5419 20.3012 17.6748C22.3136 15.8266 24.7528 14.8961 27.5714 14.8961Z" fill="black" stroke="#595959" stroke-width="0.025974"/>
</svg>
