<svg width="57" height="74" viewBox="0 0 57 74" fill="none" xmlns="http://www.w3.org/2000/svg">
<path d="M37.7316 18.352H54.8146C53.2365 13.0927 50.5077 8.9468 46.6227 5.88829C42.4604 2.61115 36.7941 0.961044 29.5931 0.961044C23.9282 0.961044 18.9279 2.33533 14.5682 5.08246C10.2127 7.82719 6.78471 11.853 4.27929 17.181C1.76377 22.533 0.5 29.0354 0.5 36.6949C0.5 43.622 1.6321 49.8342 3.89199 55.3381C6.13457 60.8006 9.45304 65.1118 13.8551 68.291C18.2331 71.4533 23.6731 73.039 30.2038 73.039C33.4597 73.0447 36.6943 72.5125 39.7767 71.4638C42.8303 70.4323 45.663 68.8362 48.1272 66.7586C50.6038 64.6779 52.5744 62.1264 54.0443 59.0957C55.506 56.0814 56.2403 52.5818 56.2403 48.5877C56.2403 44.3534 55.2494 40.5938 53.2697 37.2907C51.2832 33.9766 48.636 31.3837 45.3171 29.5005C41.9991 27.6183 38.3592 26.678 34.3805 26.678C27.3908 26.678 22.2041 28.8643 18.7304 33.2274L16.8069 35.6445L17.0198 32.5629C17.4398 26.491 18.7304 22.0635 20.9447 19.2746C23.1983 16.4362 26.1751 14.998 29.7963 14.998C31.8433 14.998 33.5569 15.3507 34.9307 16.0743C36.1055 16.6928 37.043 17.452 37.7316 18.352V18.352ZM29.6219 59.1039C26.8229 59.1039 24.3833 58.1938 22.3487 56.3866C20.2844 54.5524 19.2403 52.1859 19.2403 49.3542C19.2403 46.5282 20.2801 44.1338 22.3348 42.2338C24.3693 40.3516 26.8142 39.4026 29.6214 39.4026C32.431 39.4026 34.8619 40.354 36.8648 42.2401C38.8829 44.14 39.9026 46.5321 39.9026 49.3542C39.9026 52.182 38.8786 54.5462 36.8513 56.3803C34.849 58.1919 32.4238 59.1039 29.6219 59.1039V59.1039Z" fill="black" stroke="#595959" stroke-width="0.025974"/>
</svg>
