<svg width="56" height="74" viewBox="0 0 56 74" fill="none" xmlns="http://www.w3.org/2000/svg">
<path d="M50.2761 15.4602V0.961044H6.04231L2.054 43.4183H17.6531C18.6838 42.2833 19.9913 41.3742 21.566 40.6914C23.2886 39.9446 25.1905 39.5727 27.2645 39.5727C30.2663 39.5727 32.751 40.4112 34.6731 42.0978C36.6245 43.8104 37.6062 46.1198 37.6062 48.9524C37.6062 51.8553 36.624 54.1853 34.6649 55.8657C32.7433 57.5139 30.2624 58.3317 27.2645 58.3317C25.1987 58.3317 23.3386 57.9982 21.69 57.325C20.1955 56.7157 19.0101 55.9094 18.1495 54.9022H0.78447C2.37403 60.4729 5.48491 64.812 10.1354 67.9551C15.1424 71.3398 21.4699 73.039 29.1399 73.039C34.0028 73.039 38.4111 72.0827 42.3773 70.1722C46.3166 68.2746 49.4462 65.5025 51.782 61.8424C54.1096 58.1952 55.2792 53.6976 55.2792 48.3287C55.2792 43.9166 54.3119 40.009 52.3807 36.5892C50.449 33.1688 47.8091 30.4866 44.4474 28.5284C41.0885 26.5718 37.3121 25.593 33.1013 25.593C27.7868 25.593 23.4434 27.2666 20.0149 30.6197L18.1447 32.4485L19.7174 15.4602H50.2761V15.4602Z" fill="black" stroke="#595959" stroke-width="0.025974"/>
</svg>
